<?xml version="1.0" encoding="iso-8859-1"?>
<!-- Generator: Adobe Illustrator 17.1.0, SVG Export Plug-In . SVG Version: 6.00 Build 0)  -->
<!DOCTYPE svg PUBLIC "-//W3C//DTD SVG 1.1//EN" "http://www.w3.org/Graphics/SVG/1.1/DTD/svg11.dtd">
<svg version="1.1" id="Capa_1" xmlns="http://www.w3.org/2000/svg" xmlns:xlink="http://www.w3.org/1999/xlink" x="0px" y="0px"
	 viewBox="0 0 221 221" style="enable-background:new 0 0 221 221;" xml:space="preserve">
<g>
	<path d="M214.771,135.621V79.739c0-4.142-3.357-7.5-7.5-7.5h-15.227l-22.026-19.102c-10.187-8.834-25.57-8.222-35.024,1.397
		l-12.147,12.363L88.494,43.214c-9.554-6.586-22.379-5.911-31.189,1.644L26.874,70.956c-0.452,0.388-0.84,0.821-1.176,1.283H14.104
		c-4.142,0-7.5,3.358-7.5,7.5v55.825C2.885,136.008,0,139.167,0,143.006c0,4.142,3.358,7.5,7.5,7.5h6.604h193.167h6.229
		c4.143,0,7.5-3.358,7.5-7.5C221,139.298,218.307,136.226,214.771,135.621z M160.19,64.469l8.959,7.77h-30.523l7.066-7.191
		C149.606,61.065,155.975,60.813,160.19,64.469z M67.069,56.243c3.647-3.127,8.955-3.407,12.91-0.68l24.188,16.676H48.419
		L67.069,56.243z"/>
	<path d="M63.581,154.469c-4.911,0-9.227,2.564-11.705,6.417h-3.738c-2.478-3.853-6.793-6.417-11.705-6.417
		c-7.673,0-13.917,6.243-13.917,13.917c0,7.673,6.243,13.917,13.917,13.917c4.911,0,9.227-2.564,11.704-6.417h3.739
		c2.478,3.853,6.793,6.417,11.704,6.417c7.673,0,13.917-6.243,13.917-13.917C77.497,160.712,71.254,154.469,63.581,154.469z"/>
	<path d="M184.567,154.469c-4.911,0-9.227,2.564-11.705,6.417h-3.738c-2.478-3.853-6.793-6.417-11.705-6.417
		c-7.674,0-13.917,6.243-13.917,13.917c0,7.673,6.243,13.917,13.917,13.917c4.911,0,9.227-2.564,11.704-6.417h3.739
		c2.478,3.853,6.793,6.417,11.704,6.417c7.673,0,13.916-6.243,13.916-13.917C198.483,160.712,192.24,154.469,184.567,154.469z"/>
</g>
<g>
</g>
<g>
</g>
<g>
</g>
<g>
</g>
<g>
</g>
<g>
</g>
<g>
</g>
<g>
</g>
<g>
</g>
<g>
</g>
<g>
</g>
<g>
</g>
<g>
</g>
<g>
</g>
<g>
</g>
</svg>
