<?xml version="1.0" encoding="iso-8859-1"?>
<!-- Generator: Adobe Illustrator 16.0.0, SVG Export Plug-In . SVG Version: 6.00 Build 0)  -->
<!DOCTYPE svg PUBLIC "-//W3C//DTD SVG 1.1//EN" "http://www.w3.org/Graphics/SVG/1.1/DTD/svg11.dtd">
<svg version="1.1" id="Capa_1" xmlns="http://www.w3.org/2000/svg" xmlns:xlink="http://www.w3.org/1999/xlink" x="0px" y="0px"
	 width="549.562px" height="549.562px" viewBox="0 0 549.562 549.562" style="enable-background:new 0 0 549.562 549.562;"
	 xml:space="preserve">
<g>
	<path d="M508.759,253.66c-25.1-33.7-67.899-50.8-106.5-64.3c-37.899-12.9-92.399-27.5-133.4-19c2.4-56.9-18.4-107.101-94.9-96.7
		c-4.9,0.6-8.6,4.3-9.8,8c-83.2,49.6-130.9,158.5-154.8,247.899c-14,53.2-24.4,164,62.5,145.7c71-14.7,118.1-81.4,149.9-147.5
		c50.8,20.2,102.8,35.5,156.101,47.7c45.3,10.399,108.899,26.3,151.8,0C576.059,347.259,529.559,281.16,508.759,253.66z
		 M36.959,447.059C36.959,447.059,36.959,447.66,36.959,447.059c-3.7-1.8-5.5-6.1-8-9.8c28.8-50.8,66.7-93,101-140.8
		c34.3-48.3,66.7-112,85.1-172C188.06,240.86,112.259,360.16,36.959,447.059z M248.06,265.259c0.6-1.2,0.6-1.8,1.2-3.1
		c1.2-3.7,2.4-7.3,3.7-11c0.6,0,0.6,0.6,1.2,0.6c47.7,15.3,94.899,31.2,141.399,49.6c29.4,11.601,60,27.5,90.601,38.601
		C404.16,324.059,330.059,277.559,248.06,265.259z"/>
</g>
<g>
</g>
<g>
</g>
<g>
</g>
<g>
</g>
<g>
</g>
<g>
</g>
<g>
</g>
<g>
</g>
<g>
</g>
<g>
</g>
<g>
</g>
<g>
</g>
<g>
</g>
<g>
</g>
<g>
</g>
</svg>
