<?xml version="1.0" encoding="iso-8859-1"?>
<!-- Generator: Adobe Illustrator 19.0.0, SVG Export Plug-In . SVG Version: 6.00 Build 0)  -->
<svg version="1.1" id="Layer_1" xmlns="http://www.w3.org/2000/svg" xmlns:xlink="http://www.w3.org/1999/xlink" x="0px" y="0px"
	 viewBox="0 0 512 512" style="enable-background:new 0 0 512 512;" xml:space="preserve">
<g>
	<g>
		<path d="M384.809,185.903c0-36.651-15.49-71.284-42.655-95.735c0.06-1.315,0.09-2.627,0.09-3.925
			C342.245,38.689,303.555,0,255.999,0s-86.244,38.689-86.244,86.244c0,1.297,0.031,2.609,0.091,3.925
			c-27.165,24.449-42.655,59.083-42.655,95.733c0,36.685,15.506,71.331,42.707,95.783c-0.095,1.638-0.142,3.258-0.142,4.848
			c0,44.58,33.999,81.368,77.43,85.798v130.854c0,4.868,3.947,8.814,8.814,8.814c4.868,0,8.815-3.947,8.815-8.814V372.332
			c43.431-4.43,77.43-41.218,77.43-85.798c0-1.591-0.048-3.212-0.142-4.848C369.303,257.235,384.809,222.588,384.809,185.903z
			 M327.291,271.2c-2.262,1.893-3.428,4.794-3.105,7.726c0.286,2.589,0.43,5.149,0.43,7.607c0,37.835-30.78,68.615-68.615,68.615
			c-37.835,0-68.615-30.78-68.615-68.615c0-2.454,0.145-5.015,0.43-7.61c0.322-2.932-0.843-5.831-3.105-7.724
			c-25.35-21.212-39.89-52.302-39.89-85.297c0-32.946,14.505-64.006,39.797-85.217c2.231-1.871,3.394-4.722,3.109-7.619
			c-0.226-2.287-0.341-4.582-0.341-6.824c-0.001-37.834,30.78-68.614,68.614-68.614c37.834,0,68.615,30.78,68.615,68.615
			c0,2.244-0.114,4.54-0.34,6.824c-0.286,2.897,0.878,5.748,3.109,7.619c25.292,21.21,39.797,52.271,39.797,85.217
			C367.181,218.899,352.641,249.988,327.291,271.2z"/>
	</g>
</g>
<g>
	<g>
		<circle cx="282.122" cy="286.353" r="8.814"/>
	</g>
</g>
<g>
	<g>
		<circle cx="223.958" cy="303.982" r="8.814"/>
	</g>
</g>
<g>
	<g>
		<circle cx="312.091" cy="221.138" r="8.814"/>
	</g>
</g>
<g>
	<g>
		<circle cx="218.669" cy="212.323" r="8.814"/>
	</g>
</g>
<g>
	<g>
		<circle cx="188.7" cy="157.673" r="8.814"/>
	</g>
</g>
<g>
	<g>
		<circle cx="273.319" cy="95.032" r="8.814"/>
	</g>
</g>
<g>
</g>
<g>
</g>
<g>
</g>
<g>
</g>
<g>
</g>
<g>
</g>
<g>
</g>
<g>
</g>
<g>
</g>
<g>
</g>
<g>
</g>
<g>
</g>
<g>
</g>
<g>
</g>
<g>
</g>
</svg>
