<?xml version="1.0" encoding="iso-8859-1"?>
<!-- Generator: Adobe Illustrator 17.1.0, SVG Export Plug-In . SVG Version: 6.00 Build 0)  -->
<!DOCTYPE svg PUBLIC "-//W3C//DTD SVG 1.1//EN" "http://www.w3.org/Graphics/SVG/1.1/DTD/svg11.dtd">
<svg version="1.1" id="Capa_1" xmlns="http://www.w3.org/2000/svg" xmlns:xlink="http://www.w3.org/1999/xlink" x="0px" y="0px"
	 viewBox="0 0 467.721 467.721" style="enable-background:new 0 0 467.721 467.721;" xml:space="preserve">
<g>
	<path d="M450.762,286.516h-296.59c-2.727,0-4.28-0.623-4.447-1.242V151.248l-0.156-0.609c-1.608-6.291-7.254-10.685-13.73-10.685
		h-7.063c-5.008,0-9.105-0.051-9.18-0.051H76.313c-13.177,0-18.89,7.521-23.059,15.572C47.803,165.563,0,254.546,0,272.697v33.241
		c0,12.404,10.092,22.496,22.497,22.496h18.327c-0.012,0.413-0.032,0.824-0.032,1.239c0,22.703,18.469,41.174,41.17,41.174
		c22.702,0,41.171-18.471,41.171-41.174c0-0.415-0.019-0.827-0.031-1.239h88.166c-0.012,0.413-0.031,0.824-0.031,1.239
		c0,22.703,18.47,41.174,41.172,41.174c21.937,0,39.918-17.249,41.104-38.897c1.186,21.648,19.168,38.897,41.106,38.897
		c22.701,0,41.17-18.471,41.17-41.174c0-0.415-0.019-0.827-0.031-1.239h75.005c9.51,0,16.959-5.821,16.959-13.252v-15.415
		C467.721,292.337,460.272,286.516,450.762,286.516z M81.963,349.199c-10.782,0-19.523-8.742-19.523-19.523
		c0-10.782,8.741-19.522,19.523-19.522c10.782,0,19.523,8.74,19.523,19.522C101.486,340.457,92.744,349.199,81.963,349.199z
		 M125.018,177.594c-0.1,1.954-0.203,3.975-0.203,5.862v41.858c0,4.961-4.036,8.997-8.997,8.997H50.104
		c-1.959,0-2.787-0.435-2.951-0.664c-0.221-0.308-0.557-1.794,0.517-4.936c7.566-22.148,19.128-50.202,21.782-55.624
		c5.007-10.23,10.716-11.02,18.235-11.02h31.909c2.754,0,3.574,0.862,3.844,1.146C125.633,165.521,125.292,172.215,125.018,177.594z
		 M252.408,349.199c-10.781,0-19.521-8.742-19.521-19.523c0-10.782,8.74-19.522,19.521-19.522c10.782,0,19.522,8.74,19.522,19.522
		C271.93,340.457,263.19,349.199,252.408,349.199z M334.618,349.199c-10.782,0-19.522-8.742-19.522-19.523
		c0-10.782,8.74-19.522,19.522-19.522c10.781,0,19.522,8.74,19.522,19.522C354.14,340.457,345.4,349.199,334.618,349.199z"/>
	<path d="M222.645,271.504h184.643c14.781,0,28.541-8.256,38.746-23.246c9.804-14.401,15.203-33.458,15.203-53.658
		c0-20.199-5.399-39.254-15.203-53.654c-10.205-14.989-23.965-23.244-38.746-23.244l-0.608,0.037
		c-4.078,0.499-8.207,3.771-8.207,9.062v57.389c0,5.665-1.12,6.666-1.168,6.706c-0.578,0.483-2.88,0.582-4.729,0.662
		c-0.813,0.035-1.658,0.072-2.529,0.132c-2.517,0.174-3.898,0.316-4.763,0.459c-0.718-0.063-2.041-0.161-4.551-0.296
		c-9.86-0.527-11.116-0.987-11.116-7.663v-57.547c0-3.257-1.361-5.3-2.504-6.439c-2.38-2.376-5.426-2.501-6.026-2.501
		c-0.003,0-0.006,0-0.009,0h-61.579c2.452-2.186,3.998-5.365,3.998-8.899c0-6.577-5.352-11.929-11.929-11.929h-50.068
		c-6.577,0-11.929,5.352-11.929,11.929c0,3.534,1.546,6.714,3.998,8.899h-10.924c-14.781,0-28.541,8.255-38.746,23.244
		c-9.804,14.4-15.203,33.455-15.203,53.654c0,20.2,5.399,39.257,15.203,53.658C194.104,263.248,207.863,271.504,222.645,271.504z
		 M245.31,202.846c0-8.896,12.881-26.37,22.825-37.539c9.943,11.169,22.82,28.641,22.82,37.539c0,12.583-10.237,22.819-22.82,22.819
		C255.549,225.665,245.31,215.429,245.31,202.846z"/>
</g>
<g>
</g>
<g>
</g>
<g>
</g>
<g>
</g>
<g>
</g>
<g>
</g>
<g>
</g>
<g>
</g>
<g>
</g>
<g>
</g>
<g>
</g>
<g>
</g>
<g>
</g>
<g>
</g>
<g>
</g>
</svg>
