<?xml version="1.0" encoding="iso-8859-1"?>
<!-- Generator: Adobe Illustrator 19.0.0, SVG Export Plug-In . SVG Version: 6.00 Build 0)  -->
<svg version="1.1" id="Layer_1" xmlns="http://www.w3.org/2000/svg" xmlns:xlink="http://www.w3.org/1999/xlink" x="0px" y="0px"
	 viewBox="0 0 512 512" style="enable-background:new 0 0 512 512;" xml:space="preserve">
<g>
	<g>
		<g>
			<path d="M145.067,162.133c4.719,0,8.533-3.814,8.533-8.533c0-4.71,3.823-8.533,8.533-8.533c4.719,0,8.533-3.814,8.533-8.533
				S166.852,128,162.133,128c-14.114,0-25.6,11.486-25.6,25.6C136.533,158.319,140.348,162.133,145.067,162.133z"/>
			<path d="M59.733,332.8c-14.114,0-25.6,11.486-25.6,25.6c0,4.719,3.814,8.533,8.533,8.533s8.533-3.814,8.533-8.533
				c0-4.71,3.823-8.533,8.533-8.533c4.719,0,8.533-3.814,8.533-8.533S64.452,332.8,59.733,332.8z"/>
			<path d="M162.133,332.8c-14.114,0-25.6,11.486-25.6,25.6c0,4.719,3.814,8.533,8.533,8.533s8.533-3.814,8.533-8.533
				c0-4.71,3.823-8.533,8.533-8.533c4.719,0,8.533-3.814,8.533-8.533S166.852,332.8,162.133,332.8z"/>
			<path d="M204.8,230.4c-14.114,0-25.6,11.486-25.6,25.6c0,4.719,3.814,8.533,8.533,8.533s8.533-3.814,8.533-8.533
				c0-4.71,3.823-8.533,8.533-8.533c4.719,0,8.533-3.814,8.533-8.533S209.519,230.4,204.8,230.4z"/>
			<path d="M324.267,273.067c0,4.719,3.814,8.533,8.533,8.533H384c4.719,0,8.533-3.814,8.533-8.533c0-4.719-3.814-8.533-8.533-8.533
				h-51.2C328.081,264.533,324.267,268.348,324.267,273.067z"/>
			<path d="M341.333,230.4c-4.719,0-8.533,3.814-8.533,8.533s3.814,8.533,8.533,8.533h8.533c4.719,0,8.533-3.814,8.533-8.533
				s-3.814-8.533-8.533-8.533H341.333z"/>
			<path d="M264.533,332.8c-14.114,0-25.6,11.486-25.6,25.6c0,4.719,3.814,8.533,8.533,8.533S256,363.119,256,358.4
				c0-4.71,3.823-8.533,8.533-8.533c4.719,0,8.533-3.814,8.533-8.533S269.252,332.8,264.533,332.8z"/>
			<path d="M477.867,366.933h33.451c0.401-2.799,0.683-5.632,0.683-8.533c0-2.901-0.282-5.734-0.683-8.533h-67.584
				c-4.719,0-8.533-3.814-8.533-8.533s3.814-8.533,8.533-8.533h62.421c-9.617-20.147-30.123-34.133-53.888-34.133h-18.014
				c6.281-6.135,11.162-13.653,14.268-22.033c0.102-0.23,0.162-0.461,0.247-0.7c2.227-6.246,3.499-12.937,3.499-19.934
				c0-6.997-1.271-13.687-3.499-19.934c-0.085-0.239-0.145-0.469-0.256-0.7c-8.422-22.784-30.302-39.1-55.979-39.1h-1.178
				c5.043-4.924,9.327-10.633,12.399-17.067h-28.288c-4.719,0-8.533-3.814-8.533-8.533s3.814-8.533,8.533-8.533h33.451
				c0.401-2.799,0.683-5.632,0.683-8.533c0-2.901-0.282-5.734-0.683-8.533h-67.584c-4.719,0-8.533-3.814-8.533-8.533
				s3.814-8.533,8.533-8.533h62.421c-9.617-20.147-30.123-34.133-53.888-34.133H162.133c-32.93,0-59.733,26.803-59.733,59.733
				c0,19.516,9.446,36.821,23.97,47.727c-7.347-3.234-15.445-5.06-23.97-5.06c-32.93,0-59.733,26.803-59.733,59.733
				c0,16.734,6.938,31.863,18.065,42.718c-0.333-0.009-0.657-0.051-0.998-0.051C26.803,298.667,0,325.47,0,358.4
				s26.803,59.733,59.733,59.733h102.4h102.4h187.733c23.765,0,44.271-13.986,53.888-34.133h-28.288
				c-4.719,0-8.533-3.814-8.533-8.533S473.148,366.933,477.867,366.933z M392.533,213.333c13.884,0,26.121,6.767,33.911,17.067H384
				c-4.719,0-8.533,3.814-8.533,8.533s3.814,8.533,8.533,8.533h50.338c0.563,2.756,0.862,5.615,0.862,8.533
				c0,2.918-0.299,5.777-0.862,8.533h-16.205c-4.719,0-8.533,3.814-8.533,8.533c0,4.719,3.814,8.533,8.533,8.533h8.311
				c-7.791,10.3-20.028,17.067-33.911,17.067h-128h-17.963c0.085-0.085,0.154-0.179,0.239-0.265c0.631-0.623,1.22-1.306,1.826-1.963
				c0.7-0.76,1.417-1.493,2.082-2.287c0.555-0.674,1.058-1.399,1.596-2.099c0.631-0.836,1.289-1.655,1.886-2.517
				c0.486-0.725,0.922-1.493,1.382-2.236c0.555-0.905,1.135-1.784,1.647-2.714c0.427-0.776,0.785-1.604,1.178-2.406
				c0.094-0.196,0.188-0.384,0.282-0.58h31.445c4.719,0,8.533-3.814,8.533-8.533c0-4.719-3.814-8.533-8.533-8.533h-26.283
				c0.009-0.026,0.009-0.06,0.017-0.085c0.111-0.776,0.273-1.527,0.35-2.313c0.205-2.014,0.316-4.062,0.316-6.136
				c0-2.074-0.111-4.122-0.316-6.135c-0.077-0.785-0.239-1.536-0.35-2.313l-0.017-0.085H307.2c4.719,0,8.533-3.814,8.533-8.533
				s-3.814-8.533-8.533-8.533h-48.512c-0.094-0.196-0.188-0.384-0.282-0.58c-0.393-0.802-0.751-1.63-1.178-2.406
				c-0.512-0.93-1.092-1.809-1.647-2.705c-0.461-0.751-0.887-1.519-1.382-2.244c-0.597-0.87-1.254-1.681-1.894-2.517
				c-0.529-0.7-1.033-1.425-1.587-2.099c-0.666-0.794-1.382-1.527-2.082-2.287c-0.606-0.657-1.195-1.34-1.826-1.963
				c-0.085-0.085-0.154-0.179-0.239-0.265h103.296H392.533z M418.133,341.333c0,4.719-3.814,8.533-8.533,8.533h-8.533
				c-4.719,0-8.533-3.814-8.533-8.533s3.814-8.533,8.533-8.533h8.533C414.319,332.8,418.133,336.614,418.133,341.333z
				 M204.8,298.667c-23.526,0-42.667-19.14-42.667-42.667c0-23.526,19.14-42.667,42.667-42.667c23.526,0,42.667,19.14,42.667,42.667
				C247.467,279.526,228.326,298.667,204.8,298.667z M222.814,315.733c-3.661,3.584-6.827,7.646-9.481,12.058
				c-2.662-4.437-5.854-8.516-9.532-12.109c0.333,0.009,0.657,0.051,0.998,0.051H222.814z M153.6,286.609
				c2.662,4.429,5.854,8.516,9.532,12.109c-0.333-0.009-0.657-0.051-0.998-0.051c-8.525,0-16.623,1.826-23.97,5.06
				C144.358,299.076,149.598,293.265,153.6,286.609z M138.163,208.273c7.347,3.234,15.445,5.06,23.97,5.06h0.947
				c-3.661,3.584-6.827,7.646-9.481,12.058C149.598,218.735,144.358,212.924,138.163,208.273z M298.667,128h8.533
				c4.719,0,8.533,3.814,8.533,8.533s-3.814,8.533-8.533,8.533h-8.533c-4.719,0-8.533-3.814-8.533-8.533S293.948,128,298.667,128z
				 M290.133,162.133h51.2c4.719,0,8.533,3.814,8.533,8.533s-3.814,8.533-8.533,8.533h-51.2c-4.719,0-8.533-3.814-8.533-8.533
				S285.414,162.133,290.133,162.133z M264.533,128c4.719,0,8.533,3.814,8.533,8.533s-3.814,8.533-8.533,8.533h-43.349
				c-0.87-6.025-2.628-11.759-5.163-17.067H264.533z M221.184,162.133h26.283c4.719,0,8.533,3.814,8.533,8.533
				s-3.814,8.533-8.533,8.533h-31.445C218.556,173.892,220.314,168.158,221.184,162.133z M119.467,153.6
				c0-23.526,19.14-42.667,42.667-42.667c23.526,0,42.667,19.14,42.667,42.667c0,23.526-19.14,42.667-42.667,42.667
				C138.607,196.267,119.467,177.126,119.467,153.6z M102.4,230.4c4.719,0,8.533,3.814,8.533,8.533s-3.814,8.533-8.533,8.533
				c-4.71,0-8.533,3.823-8.533,8.533c0,4.719-3.814,8.533-8.533,8.533S76.8,260.719,76.8,256C76.8,241.886,88.286,230.4,102.4,230.4
				z M126.37,310.673c-6.195,4.651-11.435,10.462-15.437,17.118c-2.662-4.437-5.854-8.516-9.532-12.109
				c0.333,0.009,0.657,0.051,0.998,0.051C110.925,315.733,119.023,313.907,126.37,310.673z M59.733,401.067
				c-23.526,0-42.667-19.14-42.667-42.667s19.14-42.667,42.667-42.667c23.526,0,42.667,19.14,42.667,42.667
				S83.26,401.067,59.733,401.067z M101.504,401.067c0.068-0.068,0.128-0.154,0.196-0.222c1.604-1.587,3.115-3.277,4.531-5.035
				c0.393-0.486,0.742-0.998,1.118-1.493c1.024-1.357,1.997-2.756,2.91-4.198c0.213-0.341,0.469-0.64,0.674-0.973
				c0.205,0.341,0.469,0.64,0.683,0.973c0.905,1.442,1.877,2.842,2.901,4.19c0.375,0.503,0.725,1.016,1.118,1.502
				c1.425,1.758,2.927,3.447,4.531,5.035c0.068,0.068,0.128,0.154,0.196,0.222H101.504z M162.133,401.067
				c-23.526,0-42.667-19.14-42.667-42.667s19.14-42.667,42.667-42.667c23.526,0,42.667,19.14,42.667,42.667
				S185.66,401.067,162.133,401.067z M203.904,401.067c0.068-0.068,0.128-0.154,0.196-0.222c1.604-1.587,3.115-3.277,4.531-5.035
				c0.393-0.486,0.742-0.998,1.118-1.493c1.024-1.357,1.997-2.756,2.91-4.198c0.213-0.341,0.469-0.64,0.674-0.973
				c0.205,0.341,0.469,0.64,0.683,0.973c0.905,1.442,1.877,2.842,2.901,4.19c0.375,0.503,0.725,1.016,1.118,1.502
				c1.425,1.758,2.927,3.447,4.531,5.035c0.068,0.068,0.128,0.154,0.196,0.222H203.904z M264.533,401.067
				c-23.526,0-42.667-19.14-42.667-42.667s19.14-42.667,42.667-42.667c23.526,0,42.667,19.14,42.667,42.667
				S288.06,401.067,264.533,401.067z M349.867,384h-31.445c2.534-5.308,4.292-11.042,5.163-17.067h26.283
				c4.719,0,8.533,3.814,8.533,8.533S354.586,384,349.867,384z M366.933,349.867h-43.349c-0.87-6.025-2.628-11.759-5.163-17.067
				h48.512c4.719,0,8.533,3.814,8.533,8.533S371.652,349.867,366.933,349.867z M443.733,384h-51.2c-4.719,0-8.533-3.814-8.533-8.533
				s3.814-8.533,8.533-8.533h51.2c4.719,0,8.533,3.814,8.533,8.533S448.452,384,443.733,384z"/>
		</g>
	</g>
</g>
<g>
</g>
<g>
</g>
<g>
</g>
<g>
</g>
<g>
</g>
<g>
</g>
<g>
</g>
<g>
</g>
<g>
</g>
<g>
</g>
<g>
</g>
<g>
</g>
<g>
</g>
<g>
</g>
<g>
</g>
</svg>
