<?xml version="1.0" encoding="iso-8859-1"?>
<!-- Generator: Adobe Illustrator 19.0.0, SVG Export Plug-In . SVG Version: 6.00 Build 0)  -->
<svg version="1.1" id="Layer_1" xmlns="http://www.w3.org/2000/svg" xmlns:xlink="http://www.w3.org/1999/xlink" x="0px" y="0px"
	 viewBox="0 0 483.956 483.956" style="enable-background:new 0 0 483.956 483.956;" xml:space="preserve">
<g>
	<g>
		<g>
			<rect x="87.322" y="107.261" width="149.667" height="15"/>
			<rect x="117.255" y="147.173" width="119.733" height="15"/>
			<rect x="177.122" y="187.084" width="59.867" height="15"/>
			<path d="M460.292,276.884h-36.28c9.225-5.21,17.808-11.714,25.519-19.425c22.199-22.2,34.425-51.616,34.425-82.831
				c0-64.655-52.601-117.256-117.256-117.256H199.589V27.44h-74.867v29.933h-7.467c-31.215,0-60.631,12.226-82.831,34.425
				C12.226,113.997,0,143.413,0,174.628c0,43.847,24.196,82.143,59.933,102.255H23.664c-10.646,0-18.675,6.227-18.675,14.484v20.954
				c0,8.257,8.029,14.484,18.675,14.484h36.203v114.711H17.478v15h449v-15h-42.389v-114.71h36.203
				c10.646,0,18.675-6.227,18.675-14.484v-20.954C478.967,283.111,470.938,276.884,460.292,276.884z M354.244,72.372H366.7
				c56.384,0,102.256,45.872,102.256,102.256c0,27.208-10.666,52.857-30.032,72.224c-19.365,19.366-45.016,30.031-72.224,30.031
				h-12.456V72.372z M284.4,72.372h14.933v92.278h15V72.372h24.911v204.511H284.4V72.372z M139.722,42.44h44.867v14.933h-44.867
				V42.44z M15,174.628c0-27.208,10.666-52.858,30.031-72.224c19.366-19.366,45.016-30.032,72.224-30.032H269.4v204.511H117.255
				C60.872,276.884,15,231.012,15,174.628z M89.8,441.517H74.867V326.806H89.8V441.517z M379.155,441.517H104.8V326.806h274.355
				V441.517z M409.089,441.517h-14.934V326.806h14.934V441.517z M460.292,311.806H23.664c-1.71,0-2.987-0.4-3.675-0.745v-18.432
				c0.688-0.345,1.965-0.745,3.675-0.745h436.628c1.71,0,2.986,0.4,3.675,0.745v18.432h0
				C463.279,311.406,462.002,311.806,460.292,311.806z"/>
		</g>
	</g>
</g>
<g>
</g>
<g>
</g>
<g>
</g>
<g>
</g>
<g>
</g>
<g>
</g>
<g>
</g>
<g>
</g>
<g>
</g>
<g>
</g>
<g>
</g>
<g>
</g>
<g>
</g>
<g>
</g>
<g>
</g>
</svg>
